<mxfile host="app.diagrams.net" agent="Mozilla/5.0 (Windows NT 10.0; Win64; x64) AppleWebKit/537.36 (KHTML, like Gecko) Chrome/130.0.0.0 Safari/537.36" version="24.8.3">
  <diagram id="fc1f3b67-3c9b-b1b3-7705-706421d27264" name="ERD Habit Tracker app">
    <mxGraphModel dx="1588" dy="840" grid="1" gridSize="10" guides="1" tooltips="1" connect="1" arrows="1" fold="1" page="1" pageScale="1" pageWidth="850" pageHeight="1100" math="0" shadow="0">
      <root>
        <mxCell id="0" />
        <mxCell id="1" parent="0" />
        <mxCell id="eeJmUb57VB1KI2UnR3Kf-1" value="Trip Reservation" style="whiteSpace=wrap;html=1;align=center;" vertex="1" parent="1">
          <mxGeometry x="580" y="210" width="100" height="40" as="geometry" />
        </mxCell>
        <mxCell id="eeJmUb57VB1KI2UnR3Kf-2" value="Flight Reservation" style="whiteSpace=wrap;html=1;align=center;" vertex="1" parent="1">
          <mxGeometry x="130" y="210" width="100" height="40" as="geometry" />
        </mxCell>
        <mxCell id="eeJmUb57VB1KI2UnR3Kf-5" style="edgeStyle=orthogonalEdgeStyle;rounded=1;orthogonalLoop=1;jettySize=auto;html=1;exitX=0.5;exitY=1;exitDx=0;exitDy=0;entryX=0;entryY=0.25;entryDx=0;entryDy=0;curved=0;endArrow=none;endFill=0;" edge="1" parent="1" source="eeJmUb57VB1KI2UnR3Kf-3" target="eeJmUb57VB1KI2UnR3Kf-2">
          <mxGeometry relative="1" as="geometry" />
        </mxCell>
        <mxCell id="eeJmUb57VB1KI2UnR3Kf-3" value="&lt;u&gt;Flight#&lt;/u&gt;" style="ellipse;whiteSpace=wrap;html=1;align=center;" vertex="1" parent="1">
          <mxGeometry x="30" y="150" width="100" height="40" as="geometry" />
        </mxCell>
        <mxCell id="eeJmUb57VB1KI2UnR3Kf-7" style="edgeStyle=orthogonalEdgeStyle;rounded=1;orthogonalLoop=1;jettySize=auto;html=1;exitX=0.5;exitY=1;exitDx=0;exitDy=0;entryX=0.5;entryY=0;entryDx=0;entryDy=0;endArrow=none;endFill=0;curved=0;" edge="1" parent="1" source="eeJmUb57VB1KI2UnR3Kf-4" target="eeJmUb57VB1KI2UnR3Kf-2">
          <mxGeometry relative="1" as="geometry" />
        </mxCell>
        <mxCell id="eeJmUb57VB1KI2UnR3Kf-4" value="&lt;u&gt;DateOfTheFlight&lt;/u&gt;" style="ellipse;whiteSpace=wrap;html=1;align=center;" vertex="1" parent="1">
          <mxGeometry x="170" y="120" width="100" height="40" as="geometry" />
        </mxCell>
        <mxCell id="eeJmUb57VB1KI2UnR3Kf-6" value="" style="edgeStyle=entityRelationEdgeStyle;fontSize=12;html=1;endArrow=ERmandOne;rounded=1;curved=0;exitX=1;exitY=0.5;exitDx=0;exitDy=0;" edge="1" parent="1" source="eeJmUb57VB1KI2UnR3Kf-8">
          <mxGeometry width="100" height="100" relative="1" as="geometry">
            <mxPoint x="480" y="330" as="sourcePoint" />
            <mxPoint x="580" y="230" as="targetPoint" />
          </mxGeometry>
        </mxCell>
        <mxCell id="eeJmUb57VB1KI2UnR3Kf-8" value="has" style="shape=rhombus;perimeter=rhombusPerimeter;whiteSpace=wrap;html=1;align=center;" vertex="1" parent="1">
          <mxGeometry x="300" y="200" width="120" height="60" as="geometry" />
        </mxCell>
        <mxCell id="eeJmUb57VB1KI2UnR3Kf-10" value="Reserves" style="shape=rhombus;perimeter=rhombusPerimeter;whiteSpace=wrap;html=1;align=center;" vertex="1" parent="1">
          <mxGeometry x="120" y="310" width="120" height="60" as="geometry" />
        </mxCell>
        <mxCell id="eeJmUb57VB1KI2UnR3Kf-13" style="edgeStyle=orthogonalEdgeStyle;rounded=1;orthogonalLoop=1;jettySize=auto;html=1;exitX=0.5;exitY=0;exitDx=0;exitDy=0;entryX=0.25;entryY=1;entryDx=0;entryDy=0;curved=0;endArrow=none;endFill=0;" edge="1" parent="1" source="eeJmUb57VB1KI2UnR3Kf-12" target="eeJmUb57VB1KI2UnR3Kf-18">
          <mxGeometry relative="1" as="geometry">
            <mxPoint x="110" y="480" as="targetPoint" />
          </mxGeometry>
        </mxCell>
        <mxCell id="eeJmUb57VB1KI2UnR3Kf-12" value="&lt;u&gt;Seat#&lt;/u&gt;" style="ellipse;whiteSpace=wrap;html=1;align=center;" vertex="1" parent="1">
          <mxGeometry x="60" y="520" width="100" height="40" as="geometry" />
        </mxCell>
        <mxCell id="eeJmUb57VB1KI2UnR3Kf-15" style="rounded=1;orthogonalLoop=1;jettySize=auto;html=1;exitX=0.5;exitY=0;exitDx=0;exitDy=0;entryX=0.75;entryY=1;entryDx=0;entryDy=0;endArrow=none;endFill=0;" edge="1" parent="1" source="eeJmUb57VB1KI2UnR3Kf-14">
          <mxGeometry relative="1" as="geometry">
            <mxPoint x="185" y="480" as="targetPoint" />
          </mxGeometry>
        </mxCell>
        <mxCell id="eeJmUb57VB1KI2UnR3Kf-14" value="Class" style="ellipse;whiteSpace=wrap;html=1;align=center;" vertex="1" parent="1">
          <mxGeometry x="200" y="510" width="100" height="40" as="geometry" />
        </mxCell>
        <mxCell id="eeJmUb57VB1KI2UnR3Kf-16" value="" style="edgeStyle=entityRelationEdgeStyle;fontSize=12;html=1;endArrow=ERoneToMany;rounded=0;entryX=1;entryY=0.5;entryDx=0;entryDy=0;exitX=0;exitY=0.5;exitDx=0;exitDy=0;" edge="1" parent="1" source="eeJmUb57VB1KI2UnR3Kf-8" target="eeJmUb57VB1KI2UnR3Kf-2">
          <mxGeometry width="100" height="100" relative="1" as="geometry">
            <mxPoint x="310" y="410" as="sourcePoint" />
            <mxPoint x="410" y="310" as="targetPoint" />
          </mxGeometry>
        </mxCell>
        <mxCell id="eeJmUb57VB1KI2UnR3Kf-18" value="Seat" style="shape=ext;margin=3;double=1;whiteSpace=wrap;html=1;align=center;" vertex="1" parent="1">
          <mxGeometry x="130" y="440" width="100" height="40" as="geometry" />
        </mxCell>
        <mxCell id="eeJmUb57VB1KI2UnR3Kf-22" value="" style="fontSize=12;html=1;endArrow=ERzeroToOne;endFill=1;rounded=0;entryX=0.5;entryY=0;entryDx=0;entryDy=0;exitX=0.5;exitY=1;exitDx=0;exitDy=0;" edge="1" parent="1" source="eeJmUb57VB1KI2UnR3Kf-10" target="eeJmUb57VB1KI2UnR3Kf-18">
          <mxGeometry width="100" height="100" relative="1" as="geometry">
            <mxPoint x="210" y="400" as="sourcePoint" />
            <mxPoint x="310" y="300" as="targetPoint" />
          </mxGeometry>
        </mxCell>
        <mxCell id="eeJmUb57VB1KI2UnR3Kf-25" value="" style="edgeStyle=orthogonalEdgeStyle;rounded=1;orthogonalLoop=1;jettySize=auto;html=1;curved=0;endArrow=none;endFill=0;" edge="1" parent="1" source="eeJmUb57VB1KI2UnR3Kf-24" target="eeJmUb57VB1KI2UnR3Kf-1">
          <mxGeometry relative="1" as="geometry" />
        </mxCell>
        <mxCell id="eeJmUb57VB1KI2UnR3Kf-24" value="TripDate" style="ellipse;whiteSpace=wrap;html=1;align=center;" vertex="1" parent="1">
          <mxGeometry x="610" y="120" width="100" height="40" as="geometry" />
        </mxCell>
        <mxCell id="eeJmUb57VB1KI2UnR3Kf-27" value="&lt;u&gt;TripID&lt;/u&gt;" style="ellipse;whiteSpace=wrap;html=1;align=center;" vertex="1" parent="1">
          <mxGeometry x="500" y="120" width="100" height="40" as="geometry" />
        </mxCell>
        <mxCell id="eeJmUb57VB1KI2UnR3Kf-28" style="edgeStyle=orthogonalEdgeStyle;rounded=1;orthogonalLoop=1;jettySize=auto;html=1;exitX=0.5;exitY=1;exitDx=0;exitDy=0;entryX=0.342;entryY=0.125;entryDx=0;entryDy=0;entryPerimeter=0;curved=0;endArrow=none;endFill=0;" edge="1" parent="1" source="eeJmUb57VB1KI2UnR3Kf-27" target="eeJmUb57VB1KI2UnR3Kf-1">
          <mxGeometry relative="1" as="geometry" />
        </mxCell>
        <mxCell id="eeJmUb57VB1KI2UnR3Kf-29" value="Agent" style="whiteSpace=wrap;html=1;align=center;" vertex="1" parent="1">
          <mxGeometry x="580" y="440" width="100" height="40" as="geometry" />
        </mxCell>
        <mxCell id="eeJmUb57VB1KI2UnR3Kf-37" style="edgeStyle=orthogonalEdgeStyle;rounded=0;orthogonalLoop=1;jettySize=auto;html=1;exitX=1;exitY=0.5;exitDx=0;exitDy=0;entryX=0.25;entryY=1;entryDx=0;entryDy=0;endArrow=none;endFill=0;" edge="1" parent="1" source="eeJmUb57VB1KI2UnR3Kf-30" target="eeJmUb57VB1KI2UnR3Kf-29">
          <mxGeometry relative="1" as="geometry">
            <Array as="points">
              <mxPoint x="550" y="460" />
              <mxPoint x="550" y="480" />
            </Array>
          </mxGeometry>
        </mxCell>
        <mxCell id="eeJmUb57VB1KI2UnR3Kf-30" value="&lt;u&gt;AgentID&lt;/u&gt;" style="ellipse;whiteSpace=wrap;html=1;align=center;" vertex="1" parent="1">
          <mxGeometry x="420" y="440" width="100" height="40" as="geometry" />
        </mxCell>
        <mxCell id="eeJmUb57VB1KI2UnR3Kf-31" value="makes" style="shape=rhombus;perimeter=rhombusPerimeter;whiteSpace=wrap;html=1;align=center;" vertex="1" parent="1">
          <mxGeometry x="570" y="310" width="120" height="60" as="geometry" />
        </mxCell>
        <mxCell id="eeJmUb57VB1KI2UnR3Kf-33" value="" style="fontSize=12;html=1;endArrow=ERzeroToMany;endFill=1;rounded=0;entryX=0.5;entryY=1;entryDx=0;entryDy=0;exitX=0.5;exitY=0;exitDx=0;exitDy=0;" edge="1" parent="1" source="eeJmUb57VB1KI2UnR3Kf-31" target="eeJmUb57VB1KI2UnR3Kf-1">
          <mxGeometry width="100" height="100" relative="1" as="geometry">
            <mxPoint x="390" y="440" as="sourcePoint" />
            <mxPoint x="490" y="340" as="targetPoint" />
          </mxGeometry>
        </mxCell>
        <mxCell id="eeJmUb57VB1KI2UnR3Kf-34" value="" style="fontSize=12;html=1;endArrow=ERmandOne;rounded=1;entryX=0.5;entryY=0;entryDx=0;entryDy=0;exitX=0.5;exitY=1;exitDx=0;exitDy=0;" edge="1" parent="1" source="eeJmUb57VB1KI2UnR3Kf-31" target="eeJmUb57VB1KI2UnR3Kf-29">
          <mxGeometry width="100" height="100" relative="1" as="geometry">
            <mxPoint x="400" y="490" as="sourcePoint" />
            <mxPoint x="500" y="390" as="targetPoint" />
          </mxGeometry>
        </mxCell>
        <mxCell id="eeJmUb57VB1KI2UnR3Kf-36" style="edgeStyle=orthogonalEdgeStyle;rounded=0;orthogonalLoop=1;jettySize=auto;html=1;exitX=1;exitY=0.5;exitDx=0;exitDy=0;entryX=0;entryY=0.5;entryDx=0;entryDy=0;endArrow=none;endFill=0;" edge="1" parent="1" source="eeJmUb57VB1KI2UnR3Kf-35" target="eeJmUb57VB1KI2UnR3Kf-29">
          <mxGeometry relative="1" as="geometry" />
        </mxCell>
        <mxCell id="eeJmUb57VB1KI2UnR3Kf-35" value="Name" style="ellipse;whiteSpace=wrap;html=1;align=center;" vertex="1" parent="1">
          <mxGeometry x="430" y="400" width="100" height="40" as="geometry" />
        </mxCell>
        <mxCell id="eeJmUb57VB1KI2UnR3Kf-38" value="Travel Agent" style="whiteSpace=wrap;html=1;align=center;" vertex="1" parent="1">
          <mxGeometry x="700" y="680" width="100" height="40" as="geometry" />
        </mxCell>
        <mxCell id="eeJmUb57VB1KI2UnR3Kf-39" value="Airline Agent" style="whiteSpace=wrap;html=1;align=center;" vertex="1" parent="1">
          <mxGeometry x="460" y="680" width="100" height="40" as="geometry" />
        </mxCell>
        <mxCell id="eeJmUb57VB1KI2UnR3Kf-44" style="edgeStyle=orthogonalEdgeStyle;rounded=0;orthogonalLoop=1;jettySize=auto;html=1;exitX=0.5;exitY=1;exitDx=0;exitDy=0;entryX=0.5;entryY=0;entryDx=0;entryDy=0;endArrow=none;endFill=0;" edge="1" parent="1" source="eeJmUb57VB1KI2UnR3Kf-41" target="eeJmUb57VB1KI2UnR3Kf-39">
          <mxGeometry relative="1" as="geometry" />
        </mxCell>
        <mxCell id="eeJmUb57VB1KI2UnR3Kf-45" style="edgeStyle=orthogonalEdgeStyle;rounded=0;orthogonalLoop=1;jettySize=auto;html=1;exitX=0.5;exitY=1;exitDx=0;exitDy=0;entryX=0.5;entryY=0;entryDx=0;entryDy=0;endArrow=none;endFill=0;" edge="1" parent="1" source="eeJmUb57VB1KI2UnR3Kf-41" target="eeJmUb57VB1KI2UnR3Kf-38">
          <mxGeometry relative="1" as="geometry" />
        </mxCell>
        <mxCell id="eeJmUb57VB1KI2UnR3Kf-41" value="d" style="ellipse;whiteSpace=wrap;html=1;" vertex="1" parent="1">
          <mxGeometry x="615" y="560" width="30" height="30" as="geometry" />
        </mxCell>
        <mxCell id="eeJmUb57VB1KI2UnR3Kf-48" style="edgeStyle=orthogonalEdgeStyle;rounded=1;orthogonalLoop=1;jettySize=auto;html=1;exitX=0.5;exitY=0;exitDx=0;exitDy=0;entryX=0.25;entryY=1;entryDx=0;entryDy=0;curved=0;endArrow=none;endFill=0;" edge="1" parent="1" source="eeJmUb57VB1KI2UnR3Kf-42" target="eeJmUb57VB1KI2UnR3Kf-39">
          <mxGeometry relative="1" as="geometry" />
        </mxCell>
        <mxCell id="eeJmUb57VB1KI2UnR3Kf-42" value="AirlineName" style="ellipse;whiteSpace=wrap;html=1;align=center;" vertex="1" parent="1">
          <mxGeometry x="380" y="760" width="100" height="40" as="geometry" />
        </mxCell>
        <mxCell id="eeJmUb57VB1KI2UnR3Kf-43" value="" style="shape=link;html=1;rounded=0;entryX=0.5;entryY=0;entryDx=0;entryDy=0;width=-5.294117647058823;exitX=0.5;exitY=1;exitDx=0;exitDy=0;" edge="1" parent="1" source="eeJmUb57VB1KI2UnR3Kf-29" target="eeJmUb57VB1KI2UnR3Kf-41">
          <mxGeometry width="100" relative="1" as="geometry">
            <mxPoint x="610" y="530" as="sourcePoint" />
            <mxPoint x="710" y="530" as="targetPoint" />
          </mxGeometry>
        </mxCell>
        <mxCell id="eeJmUb57VB1KI2UnR3Kf-47" style="edgeStyle=orthogonalEdgeStyle;rounded=0;orthogonalLoop=1;jettySize=auto;html=1;exitX=0.5;exitY=0;exitDx=0;exitDy=0;entryX=0.5;entryY=1;entryDx=0;entryDy=0;endArrow=none;endFill=0;" edge="1" parent="1" source="eeJmUb57VB1KI2UnR3Kf-46" target="eeJmUb57VB1KI2UnR3Kf-38">
          <mxGeometry relative="1" as="geometry" />
        </mxCell>
        <mxCell id="eeJmUb57VB1KI2UnR3Kf-46" value="AgencyName" style="ellipse;whiteSpace=wrap;html=1;align=center;" vertex="1" parent="1">
          <mxGeometry x="660" y="760" width="100" height="40" as="geometry" />
        </mxCell>
        <mxCell id="eeJmUb57VB1KI2UnR3Kf-49" value="Passanger" style="whiteSpace=wrap;html=1;align=center;" vertex="1" parent="1">
          <mxGeometry x="930" y="210" width="100" height="40" as="geometry" />
        </mxCell>
        <mxCell id="eeJmUb57VB1KI2UnR3Kf-50" value="Ticket" style="whiteSpace=wrap;html=1;align=center;" vertex="1" parent="1">
          <mxGeometry x="930" y="440" width="100" height="40" as="geometry" />
        </mxCell>
        <mxCell id="eeJmUb57VB1KI2UnR3Kf-51" value="has" style="shape=rhombus;perimeter=rhombusPerimeter;whiteSpace=wrap;html=1;align=center;" vertex="1" parent="1">
          <mxGeometry x="760" y="200" width="120" height="60" as="geometry" />
        </mxCell>
        <mxCell id="eeJmUb57VB1KI2UnR3Kf-52" value="" style="edgeStyle=entityRelationEdgeStyle;fontSize=12;html=1;endArrow=ERoneToMany;rounded=0;entryX=1;entryY=0.5;entryDx=0;entryDy=0;exitX=0;exitY=0.5;exitDx=0;exitDy=0;" edge="1" parent="1" source="eeJmUb57VB1KI2UnR3Kf-51" target="eeJmUb57VB1KI2UnR3Kf-1">
          <mxGeometry width="100" height="100" relative="1" as="geometry">
            <mxPoint x="770" y="400" as="sourcePoint" />
            <mxPoint x="870" y="300" as="targetPoint" />
          </mxGeometry>
        </mxCell>
        <mxCell id="eeJmUb57VB1KI2UnR3Kf-53" value="" style="edgeStyle=entityRelationEdgeStyle;fontSize=12;html=1;endArrow=ERmandOne;rounded=0;entryX=0;entryY=0.5;entryDx=0;entryDy=0;exitX=1;exitY=0.5;exitDx=0;exitDy=0;" edge="1" parent="1" source="eeJmUb57VB1KI2UnR3Kf-51" target="eeJmUb57VB1KI2UnR3Kf-49">
          <mxGeometry width="100" height="100" relative="1" as="geometry">
            <mxPoint x="800" y="410" as="sourcePoint" />
            <mxPoint x="900" y="310" as="targetPoint" />
          </mxGeometry>
        </mxCell>
        <mxCell id="eeJmUb57VB1KI2UnR3Kf-59" style="edgeStyle=orthogonalEdgeStyle;rounded=0;orthogonalLoop=1;jettySize=auto;html=1;exitX=0.5;exitY=1;exitDx=0;exitDy=0;entryX=0.5;entryY=0;entryDx=0;entryDy=0;endArrow=none;endFill=0;" edge="1" parent="1" source="eeJmUb57VB1KI2UnR3Kf-55" target="eeJmUb57VB1KI2UnR3Kf-49">
          <mxGeometry relative="1" as="geometry" />
        </mxCell>
        <mxCell id="eeJmUb57VB1KI2UnR3Kf-55" value="&lt;u&gt;Name&lt;/u&gt;" style="ellipse;whiteSpace=wrap;html=1;align=center;" vertex="1" parent="1">
          <mxGeometry x="910" y="100" width="100" height="40" as="geometry" />
        </mxCell>
        <mxCell id="eeJmUb57VB1KI2UnR3Kf-58" style="edgeStyle=orthogonalEdgeStyle;rounded=0;orthogonalLoop=1;jettySize=auto;html=1;exitX=0.5;exitY=1;exitDx=0;exitDy=0;entryX=0.75;entryY=0;entryDx=0;entryDy=0;endArrow=none;endFill=0;" edge="1" parent="1" source="eeJmUb57VB1KI2UnR3Kf-56" target="eeJmUb57VB1KI2UnR3Kf-49">
          <mxGeometry relative="1" as="geometry" />
        </mxCell>
        <mxCell id="eeJmUb57VB1KI2UnR3Kf-56" value="&lt;u&gt;Phone#&lt;/u&gt;" style="ellipse;whiteSpace=wrap;html=1;align=center;" vertex="1" parent="1">
          <mxGeometry x="1020" y="100" width="100" height="40" as="geometry" />
        </mxCell>
        <mxCell id="eeJmUb57VB1KI2UnR3Kf-60" style="edgeStyle=orthogonalEdgeStyle;rounded=0;orthogonalLoop=1;jettySize=auto;html=1;exitX=0.5;exitY=1;exitDx=0;exitDy=0;entryX=0.25;entryY=0;entryDx=0;entryDy=0;endArrow=none;endFill=0;" edge="1" parent="1" source="eeJmUb57VB1KI2UnR3Kf-57" target="eeJmUb57VB1KI2UnR3Kf-49">
          <mxGeometry relative="1" as="geometry" />
        </mxCell>
        <mxCell id="eeJmUb57VB1KI2UnR3Kf-57" value="Adress" style="ellipse;whiteSpace=wrap;html=1;align=center;" vertex="1" parent="1">
          <mxGeometry x="800" y="100" width="100" height="40" as="geometry" />
        </mxCell>
        <mxCell id="eeJmUb57VB1KI2UnR3Kf-61" value="created" style="shape=rhombus;perimeter=rhombusPerimeter;whiteSpace=wrap;html=1;align=center;rotation=30;" vertex="1" parent="1">
          <mxGeometry x="760" y="310" width="120" height="60" as="geometry" />
        </mxCell>
        <mxCell id="eeJmUb57VB1KI2UnR3Kf-63" style="edgeStyle=orthogonalEdgeStyle;rounded=0;orthogonalLoop=1;jettySize=auto;html=1;exitX=0.5;exitY=1;exitDx=0;exitDy=0;entryX=1;entryY=0.25;entryDx=0;entryDy=0;endArrow=none;endFill=0;" edge="1" parent="1" source="eeJmUb57VB1KI2UnR3Kf-62" target="eeJmUb57VB1KI2UnR3Kf-50">
          <mxGeometry relative="1" as="geometry" />
        </mxCell>
        <mxCell id="eeJmUb57VB1KI2UnR3Kf-62" value="&lt;u&gt;TicketID&lt;/u&gt;" style="ellipse;whiteSpace=wrap;html=1;align=center;" vertex="1" parent="1">
          <mxGeometry x="1060" y="380" width="100" height="40" as="geometry" />
        </mxCell>
        <mxCell id="eeJmUb57VB1KI2UnR3Kf-64" value="" style="fontSize=12;html=1;endArrow=ERzeroToOne;endFill=1;rounded=1;entryX=0;entryY=0.5;entryDx=0;entryDy=0;exitX=1;exitY=1;exitDx=0;exitDy=0;" edge="1" parent="1" source="eeJmUb57VB1KI2UnR3Kf-61" target="eeJmUb57VB1KI2UnR3Kf-50">
          <mxGeometry width="100" height="100" relative="1" as="geometry">
            <mxPoint x="750" y="560" as="sourcePoint" />
            <mxPoint x="850" y="460" as="targetPoint" />
          </mxGeometry>
        </mxCell>
        <mxCell id="eeJmUb57VB1KI2UnR3Kf-65" value="" style="fontSize=12;html=1;endArrow=ERmandOne;rounded=1;entryX=1;entryY=1;entryDx=0;entryDy=0;exitX=0;exitY=0.5;exitDx=0;exitDy=0;" edge="1" parent="1" source="eeJmUb57VB1KI2UnR3Kf-61" target="eeJmUb57VB1KI2UnR3Kf-1">
          <mxGeometry width="100" height="100" relative="1" as="geometry">
            <mxPoint x="710" y="400" as="sourcePoint" />
            <mxPoint x="810" y="300" as="targetPoint" />
          </mxGeometry>
        </mxCell>
        <mxCell id="eeJmUb57VB1KI2UnR3Kf-69" style="edgeStyle=orthogonalEdgeStyle;rounded=0;orthogonalLoop=1;jettySize=auto;html=1;exitX=0.5;exitY=0;exitDx=0;exitDy=0;entryX=0.75;entryY=1;entryDx=0;entryDy=0;endArrow=none;endFill=0;" edge="1" parent="1" source="eeJmUb57VB1KI2UnR3Kf-66" target="eeJmUb57VB1KI2UnR3Kf-50">
          <mxGeometry relative="1" as="geometry" />
        </mxCell>
        <mxCell id="eeJmUb57VB1KI2UnR3Kf-66" value="FareType" style="ellipse;whiteSpace=wrap;html=1;align=center;" vertex="1" parent="1">
          <mxGeometry x="1070" y="520" width="100" height="40" as="geometry" />
        </mxCell>
        <mxCell id="eeJmUb57VB1KI2UnR3Kf-71" style="edgeStyle=orthogonalEdgeStyle;rounded=0;orthogonalLoop=1;jettySize=auto;html=1;exitX=0.5;exitY=0;exitDx=0;exitDy=0;entryX=0.5;entryY=1;entryDx=0;entryDy=0;endArrow=none;endFill=0;" edge="1" parent="1" source="eeJmUb57VB1KI2UnR3Kf-68" target="eeJmUb57VB1KI2UnR3Kf-50">
          <mxGeometry relative="1" as="geometry" />
        </mxCell>
        <mxCell id="eeJmUb57VB1KI2UnR3Kf-68" value="PaymentType" style="ellipse;whiteSpace=wrap;html=1;align=center;" vertex="1" parent="1">
          <mxGeometry x="930" y="520" width="100" height="40" as="geometry" />
        </mxCell>
        <mxCell id="eeJmUb57VB1KI2UnR3Kf-72" value="" style="fontSize=12;html=1;endArrow=ERmandOne;rounded=0;exitX=0.5;exitY=0;exitDx=0;exitDy=0;entryX=0.5;entryY=1;entryDx=0;entryDy=0;" edge="1" parent="1" source="eeJmUb57VB1KI2UnR3Kf-10" target="eeJmUb57VB1KI2UnR3Kf-2">
          <mxGeometry width="100" height="100" relative="1" as="geometry">
            <mxPoint x="360" y="400" as="sourcePoint" />
            <mxPoint x="460" y="300" as="targetPoint" />
          </mxGeometry>
        </mxCell>
      </root>
    </mxGraphModel>
  </diagram>
</mxfile>
